<?xml version="1.0" encoding="UTF-8"?>
<svg id="Layer_1" data-name="Layer 1" xmlns="http://www.w3.org/2000/svg" viewBox="0 0 48 48">
  <defs>
    <style>
      .cls-1 {
        fill: #f58220;
      }
    </style>
  </defs>
  <path class="cls-1" d="M47.69,15.7c0-1.41-.24-2.88-.8-4.31-.55-1.43-1.44-2.83-2.68-4.02-1.11-1.06-2.42-1.8-3.77-2.28-1.35-.48-2.76-.7-4.15-.7-1.39,0-2.77.22-4.1.66-1.33.45-2.61,1.13-3.73,2.09l-.09.08-2.76,2.69,5.37,5.23,2.55-2.49c.28-.23.66-.45,1.13-.6.49-.17,1.07-.26,1.63-.26.57,0,1.12.09,1.56.25.45.16.8.37,1.04.61.41.39.7.84.9,1.36.2.51.31,1.1.31,1.7,0,.65-.13,1.3-.33,1.79-.19.5-.45.81-.54.88l-.08.07-15.35,14.71-14.39-14.02c-.56-.65-.94-1.26-1.17-1.79-.24-.56-.33-1.03-.33-1.45,0-.4.08-.76.26-1.18.19-.42.5-.89,1.02-1.41.61-.61,1.17-.99,1.64-1.22.47-.22.85-.29,1.24-.3.37,0,.77.07,1.28.29.5.21,1.09.57,1.76,1.14l10.51,10.23,5.37-5.23-10.78-10.49c-1.18-1.02-2.45-1.85-3.82-2.43-1.36-.58-2.84-.91-4.32-.9-1.58,0-3.13.37-4.54,1.03-1.41.66-2.67,1.6-3.79,2.72-1.07,1.08-1.94,2.28-2.53,3.6-.59,1.31-.9,2.73-.89,4.14,0,1.5.34,2.97.93,4.33.59,1.36,1.44,2.63,2.47,3.8l.09.11,20,19.48,20.64-19.86h0c1.12-1.04,1.89-2.27,2.42-3.6.55-1.39.83-2.89.84-4.45"/>
</svg>