<svg width="58" height="58" viewBox="0 0 58 58" fill="none" xmlns="http://www.w3.org/2000/svg">
<rect width="58" height="58" rx="8" fill="white" fill-opacity="0.08"/>
<rect x="0.5" y="0.5" width="57" height="57" rx="7.5" stroke="black" stroke-opacity="0.1"/>
<path d="M21.86 12H36.14C41.58 12 46 16.42 46 21.86V36.14C46 38.7551 44.9612 41.263 43.1121 43.1121C41.263 44.9612 38.7551 46 36.14 46H21.86C16.42 46 12 41.58 12 36.14V21.86C12 19.245 13.0388 16.737 14.8879 14.8879C16.737 13.0388 19.245 12 21.86 12ZM21.52 15.4C19.8969 15.4 18.3402 16.0448 17.1925 17.1925C16.0448 18.3402 15.4 19.8969 15.4 21.52V36.4801C15.4 39.863 18.137 42.6 21.52 42.6H36.4801C38.1031 42.6 39.6597 41.9553 40.8076 40.8076C41.9553 39.6599 42.6 38.1031 42.6 36.4801V21.52C42.6 18.137 39.863 15.4 36.4801 15.4H21.52ZM37.925 17.95C38.4887 17.95 39.0291 18.1739 39.4277 18.5724C39.8262 18.9709 40.0501 19.5114 40.0501 20.075C40.0501 20.6386 39.8262 21.1791 39.4277 21.5776C39.0291 21.9761 38.4887 22.2 37.925 22.2C37.3615 22.2 36.821 21.9761 36.4225 21.5776C36.0239 21.1791 35.8 20.6386 35.8 20.075C35.8 19.5114 36.0239 18.9709 36.4225 18.5724C36.821 18.1739 37.3615 17.95 37.925 17.95ZM29.0001 20.5C31.2544 20.5 33.4164 21.3956 35.0105 22.9897C36.6045 24.5837 37.5 26.7457 37.5 29.0001C37.5 31.2544 36.6045 33.4164 35.0105 35.0105C33.4164 36.6045 31.2544 37.5 29.0001 37.5C26.7457 37.5 24.5837 36.6045 22.9896 35.0105C21.3955 33.4164 20.5 31.2544 20.5 29.0001C20.5 26.7457 21.3955 24.5837 22.9896 22.9897C24.5837 21.3956 26.7457 20.5 29.0001 20.5ZM29.0001 23.9C27.6475 23.9 26.3502 24.4374 25.3938 25.3938C24.4374 26.3502 23.9 27.6475 23.9 29.0001C23.9 30.3527 24.4374 31.6499 25.3938 32.6063C26.3502 33.5627 27.6475 34.1 29.0001 34.1C30.3527 34.1 31.6498 33.5627 32.6062 32.6063C33.5627 31.6499 34.1 30.3527 34.1 29.0001C34.1 27.6475 33.5627 26.3502 32.6062 25.3938C31.6498 24.4374 30.3527 23.9 29.0001 23.9Z" fill="black"/>
</svg>
