<svg width="58" height="58" viewBox="0 0 58 58" fill="none" xmlns="http://www.w3.org/2000/svg">
<rect width="58" height="58" rx="8" fill="white" fill-opacity="0.08"/>
<rect x="0.5" y="0.5" width="57" height="57" rx="7.5" stroke="black" stroke-opacity="0.1"/>
<g clip-path="url(#clip0_418_10314)">
<path d="M43.2163 19.1994C41.4403 18.8256 39.8321 17.9035 38.6261 16.5673C37.4201 15.2312 36.6793 13.551 36.5119 11.7716V11H30.3853V34.9228C30.3816 35.9819 30.0406 37.0133 29.4104 37.8718C28.7802 38.7305 27.8924 39.3732 26.8717 39.7097C25.8511 40.0463 24.749 40.0596 23.7202 39.7481C22.6914 39.4365 21.7877 38.8156 21.136 37.9727C20.4743 37.1156 20.1072 36.0734 20.088 34.9973C20.0688 33.9211 20.3985 32.8668 21.0293 31.9875C21.6601 31.108 22.5592 30.4492 23.5961 30.1065C24.6332 29.7637 25.7541 29.7549 26.7966 30.0812V23.957C24.472 23.6408 22.1051 24.0475 20.027 25.12C17.9488 26.1926 16.2634 27.8775 15.2064 29.9389C14.1494 32.0004 13.7737 34.3354 14.1319 36.6173C14.4901 38.8992 15.5642 41.014 17.2041 42.6655C18.7679 44.2399 20.7731 45.3201 22.9636 45.7681C25.1541 46.2162 27.4307 46.0119 29.5027 45.1811C31.5746 44.3504 33.348 42.931 34.5964 41.1042C35.8448 39.2774 36.5117 37.126 36.5119 34.9246V22.7007C38.9878 24.4423 41.9564 25.3762 45 25.3709V19.3814C44.4006 19.3821 43.8028 19.3211 43.2163 19.1994Z" fill="black"/>
</g>
<defs>
<clipPath id="clip0_418_10314">
<rect width="31" height="35" fill="white" transform="translate(14 11)"/>
</clipPath>
</defs>
</svg>
