<svg width="58" height="58" viewBox="0 0 58 58" fill="none" xmlns="http://www.w3.org/2000/svg">
<rect width="58" height="58" rx="8" fill="white" fill-opacity="0.08"/>
<rect x="0.5" y="0.5" width="57" height="57" rx="7.5" stroke="black" stroke-opacity="0.1"/>
<path d="M26 33.1429L35.0825 28L26 22.8571V33.1429ZM46.2299 19.72C46.4575 20.5257 46.615 21.6057 46.72 22.9771C46.8425 24.3486 46.8949 25.5314 46.8949 26.56L47 28C47 31.7543 46.72 34.5143 46.2299 36.28C45.7925 37.8229 44.7774 38.8171 43.2024 39.2457C42.38 39.4686 40.875 39.6229 38.565 39.7257C36.29 39.8457 34.2075 39.8972 32.2825 39.8972L29.5 40C22.1675 40 17.6 39.7257 15.7975 39.2457C14.2225 38.8171 13.2075 37.8229 12.77 36.28C12.5425 35.4743 12.385 34.3943 12.28 33.0229C12.1575 31.6514 12.105 30.4686 12.105 29.44L12 28C12 24.2457 12.28 21.4857 12.77 19.72C13.2075 18.1771 14.2225 17.1829 15.7975 16.7543C16.62 16.5314 18.125 16.3771 20.435 16.2743C22.71 16.1543 24.7925 16.1029 26.7175 16.1029L29.5 16C36.8325 16 41.4 16.2743 43.2024 16.7543C44.7774 17.1829 45.7925 18.1771 46.2299 19.72Z" fill="black"/>
</svg>
