<svg width="1380" height="174" viewBox="0 0 1380 174" fill="none" xmlns="http://www.w3.org/2000/svg">
<path d="M807 5V29.8341H761.835V155H735.172V29.8341H690V5H807Z" fill="#FE8204"/>
<path d="M891 68.4821V148.42H864.883V132.215C862.711 138.638 854.652 150.427 837.265 150.974C810.787 151.808 797 132.647 797 115.32C797 93.3324 815.347 79.6522 837.525 79.6522H853.837C860.417 79.6522 865.15 75.8617 864.847 71.1146C864.342 63.0301 857.639 58.8225 846.586 58.8225C839.343 58.8225 832.453 63.2315 830.13 68.6404H803.977C808.81 46.2571 828.153 38 846.586 38C865.02 38 890.993 47.4582 890.993 68.4965M864.883 96.4972C861.196 97.8997 857.105 98.6909 852.921 98.6909H841.81C834.964 98.6909 824.322 100.719 823.11 111.889C822.121 120.995 829.654 129.223 841.81 129.223C853.347 129.223 864.876 120.988 864.876 111.789V96.49L864.883 96.4972Z" fill="#FE8204"/>
<path d="M1008.41 65.1976V123.036C1008.41 127.622 1012.24 131.478 1016.56 131.478H1026.99V154.993H1008.9C994.17 154.993 981.958 142.93 981.958 127.806V65.205H947.411V123.043C947.411 127.629 951.241 131.486 955.56 131.486H965.996V155H947.908C933.174 155 920.962 142.937 920.962 127.814V65.2124H905V44.3895H920.962V5H947.411V44.3895H981.958V5H1008.41V44.3895H1027V65.2124H1008.41L1008.41 65.1976Z" fill="#FE8204"/>
<path d="M1149 94.5036C1149 130.313 1123.63 150.763 1095 151C1066.37 150.763 1041 130.421 1041 94.5036C1041 58.5866 1066.96 38 1095 38C1123.04 38 1149 58.6945 1149 94.5036ZM1122.59 94.5036C1122.59 73.3921 1109.31 61.1681 1095 60.9595C1080.69 61.1753 1067.42 73.2842 1067.42 94.5036C1067.42 117.14 1081.02 127.882 1095 128.062C1108.99 127.882 1122.59 117.14 1122.59 94.5036Z" fill="#FE8204"/>
<path d="M1271 94.5036C1271 130.313 1245.63 150.763 1217 151C1188.37 150.763 1163 130.421 1163 94.5036C1163 58.5866 1188.96 38 1217 38C1245.04 38 1271 58.6945 1271 94.5036ZM1244.59 94.5036C1244.59 73.3921 1231.31 61.1681 1217 60.9595C1202.69 61.1753 1189.42 73.2842 1189.42 94.5036C1189.42 117.14 1203.02 127.882 1217 128.062C1230.99 127.882 1244.59 117.14 1244.59 94.5036Z" fill="#FE8204"/>
<path d="M1380 117.116C1380 140.833 1355.3 151.706 1330.95 150.965C1300.09 150.022 1281 131.817 1281 113.662H1307.93C1307.93 122.254 1319.63 127.723 1330.95 128.09C1342.5 128.471 1352.7 123.679 1352.7 117.498C1352.7 112.18 1348.85 109.489 1340.07 107.992C1339.73 107.935 1314.79 103.761 1314.79 103.761C1298.5 100.976 1282.58 90.2261 1283.67 69.5745C1284.59 52.2546 1305.16 38 1329.98 38C1359.37 38 1378.9 56.2914 1376.33 71.3734H1349.38C1349.38 66.6963 1340.63 61.4794 1330.92 60.8606C1319.96 60.1554 1310.86 64.0699 1310.86 70.6827C1310.86 75.4822 1315.74 78.3604 1324.93 79.9291C1325.21 79.9795 1351.19 84.4192 1351.19 84.4192C1367.68 87.2327 1380 98.2204 1380 117.116Z" fill="#FE8204"/>
<path d="M94 0V108.101C94 135.247 73.0831 150 47 150C20.9169 150 0 132.613 0 108.101V99.0026H28.1363V108.101C28.1363 118.427 36.334 127.138 47 127.138C57.666 127.138 65.4413 118.937 65.8415 109.049C65.8563 108.733 65.8415 0 65.8415 0H94Z" fill="#FE8204"/>
<path d="M207 42.0074V152.362H180.948V138.665C177.421 145.127 170.503 154.445 156.768 154.96C128.801 156.042 113 134.978 113 115.533V42H139.059V115.533C139.059 124.932 147.172 131.533 160.648 131.533C174.124 131.533 180.948 121.767 180.948 110.249V42H207V42.0074Z" fill="#FE8204"/>
<path d="M324 117.116C324 140.833 299.298 151.706 274.946 150.965C244.093 150.022 225 131.817 225 113.662H251.926C251.926 122.254 263.633 127.723 274.946 128.09C286.498 128.471 296.695 123.679 296.695 117.498C296.695 112.18 292.85 109.489 284.073 107.992C283.731 107.935 258.791 103.761 258.791 103.761C242.502 100.976 226.577 90.2261 227.67 69.5745C228.593 52.2546 249.159 38 273.979 38C303.367 38 322.899 56.2913 320.326 71.3734H293.378C293.378 66.6963 284.631 61.4794 274.924 60.8606C263.96 60.1554 254.864 64.0698 254.864 70.6827C254.864 75.4822 259.743 78.3604 268.929 79.9291C269.212 79.9794 295.185 84.4192 295.185 84.4192C311.683 87.2399 324 98.2204 324 117.116Z" fill="#FE8204"/>
<path d="M375.414 65.2124V123.05C375.414 127.637 379.243 131.486 383.563 131.486H394V155H375.91C361.176 155 348.963 142.937 348.963 127.814V65.2124H333V44.3895H348.963V5H375.414V44.3895H394V65.2124H375.414Z" fill="#FE8204"/>
<path d="M642.993 50.1729C642.993 43.905 641.971 37.3962 639.595 31.0334C637.234 24.6778 633.455 18.4756 628.15 13.2072C623.421 8.50809 617.85 5.20263 612.099 3.09385C606.333 0.977772 600.344 0.00729682 594.398 0C588.482 0 582.579 0.970476 576.914 2.94062C571.257 4.92535 565.808 7.93894 561.035 12.193L560.654 12.5359L548.871 24.4808L571.753 47.6774L582.644 36.63C583.839 35.6085 585.473 34.6453 587.467 33.9521C589.561 33.2151 592.009 32.7992 594.406 32.8065C596.817 32.8065 599.164 33.2224 601.071 33.9302C603 34.638 604.461 35.5939 605.498 36.63C607.254 38.3813 608.471 40.3514 609.335 42.6499C610.191 44.9338 610.637 47.5461 610.637 50.1729C610.645 53.0625 610.083 55.952 609.241 58.1338C608.42 60.3374 607.305 61.7457 606.93 62.0449L606.585 62.3586L541.14 127.614L479.776 65.4087C477.394 62.5338 475.76 59.8193 474.773 57.4479C473.744 54.967 473.363 52.8801 473.355 51.0121C473.363 49.2535 473.679 47.6264 474.464 45.773C475.263 43.9269 476.587 41.8327 478.797 39.5196C481.403 36.7979 483.793 35.105 485.794 34.1272C487.816 33.1568 489.414 32.8211 491.077 32.8138C492.639 32.8211 494.352 33.1349 496.548 34.0908C498.664 35.0247 501.212 36.6373 504.041 39.1474L548.835 84.5556L571.717 61.359L525.765 14.8198C520.726 10.2885 515.32 6.60362 509.49 4.02055C503.674 1.43748 497.397 -1.22458e-06 491.077 0.0072956C484.361 -1.22458e-06 477.717 1.64178 471.743 4.5824C465.747 7.51573 460.377 11.6676 455.591 16.6659C451.02 21.4381 447.334 26.8012 444.815 32.646C442.296 38.4761 440.993 44.7733 441 51.0121C441 57.6595 442.447 64.1901 444.973 70.2319C447.507 76.2883 451.099 81.9068 455.483 87.0949L455.886 87.5765L541.14 174L629.144 85.8763L629.115 85.8471C633.909 81.2574 637.191 75.7848 639.437 69.9182C641.769 63.7596 642.993 57.0903 643 50.1656" fill="#FE8204"/>
</svg>
