<svg width="294" height="37" viewBox="0 0 294 37" fill="none" xmlns="http://www.w3.org/2000/svg">
<path d="M172 1V6.29794H162.349V33H156.652V6.29794H147V1H172Z" fill="white"/>
<path d="M190 14.4741V31.4521H184.443V28.0104C183.981 29.3745 182.266 31.8783 178.567 31.9944C172.933 32.1716 170 28.102 170 24.422C170 19.752 173.904 16.8465 178.622 16.8465H182.093C183.493 16.8465 184.5 16.0414 184.435 15.0332C184.328 13.3161 182.902 12.4225 180.55 12.4225C179.009 12.4225 177.543 13.3589 177.049 14.5077H171.484C172.513 9.75372 176.628 8 180.55 8C184.472 8 189.998 10.0088 189.998 14.4771M184.443 20.4242C183.659 20.7221 182.788 20.8901 181.898 20.8901H179.534C178.077 20.8901 175.813 21.3209 175.555 23.6933C175.345 25.6273 176.948 27.3749 179.534 27.3749C181.989 27.3749 184.442 25.6257 184.442 23.6719V20.4226L184.443 20.4242Z" fill="white"/>
<path d="M215.038 13.8422V26.1809C215.038 27.1594 215.854 27.9821 216.774 27.9821H218.998V32.9984H215.144C212.004 32.9984 209.401 30.425 209.401 27.1987V13.8437H202.038V26.1825C202.038 27.1609 202.855 27.9836 203.775 27.9836H205.999V33H202.144C199.004 33 196.402 30.4265 196.402 27.2003V13.8453H193V9.40309H196.402V1H202.038V9.40309H209.401V1H215.039V9.40309H219V13.8453H215.039L215.038 13.8422Z" fill="white"/>
<path d="M245 20.0008C245 27.6062 239.597 31.9496 233.5 32C227.403 31.9496 222 27.6291 222 20.0008C222 12.3724 227.528 8 233.5 8C239.472 8 245 12.3953 245 20.0008ZM239.376 20.0008C239.376 15.5169 236.547 12.9207 233.5 12.8764C230.453 12.9222 227.625 15.494 227.625 20.0008C227.625 24.8084 230.523 27.09 233.5 27.1282C236.479 27.09 239.376 24.8084 239.376 20.0008Z" fill="white"/>
<path d="M271 20.0008C271 27.6062 265.597 31.9496 259.5 32C253.403 31.9496 248 27.6291 248 20.0008C248 12.3724 253.528 8 259.5 8C265.472 8 271 12.3953 271 20.0008ZM265.376 20.0008C265.376 15.5169 262.547 12.9207 259.5 12.8764C256.453 12.9222 253.625 15.494 253.625 20.0008C253.625 24.8084 256.523 27.09 259.5 27.1282C262.479 27.09 265.376 24.8084 265.376 20.0008Z" fill="white"/>
<path d="M294 24.8034C294 29.8407 288.76 32.1499 283.595 31.9925C277.05 31.7923 273 27.9257 273 24.0699H278.711C278.711 25.8946 281.195 27.0561 283.595 27.1341C286.045 27.2151 288.208 26.1972 288.208 24.8844C288.208 23.755 287.392 23.1835 285.531 22.8656C285.458 22.8534 280.168 21.967 280.168 21.967C276.712 21.3755 273.334 19.0923 273.566 14.7061C273.762 11.0275 278.125 8 283.39 8C289.623 8 293.766 11.8849 293.221 15.0882H287.504C287.504 14.0948 285.649 12.9868 283.59 12.8553C281.264 12.7056 279.335 13.537 279.335 14.9415C279.335 15.9608 280.37 16.5721 282.318 16.9053C282.378 16.916 287.888 17.8589 287.888 17.8589C291.387 18.4565 294 20.7902 294 24.8034Z" fill="white"/>
<path d="M20 0V23.0616C20 28.8527 15.5496 32 10 32C4.4504 32 0 28.2909 0 23.0616V21.1206H5.98644V23.0616C5.98644 25.2644 7.73064 27.1228 10 27.1228C12.2694 27.1228 13.9237 25.3731 14.0088 23.2637C14.012 23.1963 14.0088 0 14.0088 0H20Z" fill="white"/>
<path d="M44 9.00156V32.4397H38.457V29.5307C37.7065 30.9031 36.2346 32.8821 33.3123 32.9915C27.3619 33.2213 24 28.7475 24 24.6176V9H29.5445V24.6176C29.5445 26.6138 31.2706 28.0159 34.1378 28.0159C37.0051 28.0159 38.457 25.9416 38.457 23.4953V9H44V9.00156Z" fill="white"/>
<path d="M69 24.8034C69 29.8407 63.7603 32.1499 58.5947 31.9925C52.0501 31.7923 48 27.9257 48 24.0699H53.7115C53.7115 25.8946 56.1949 27.0561 58.5947 27.1341C61.0449 27.2151 63.208 26.1972 63.208 24.8844C63.208 23.755 62.3923 23.1835 60.5306 22.8656C60.458 22.8534 55.1678 21.967 55.1678 21.967C51.7125 21.3755 48.3345 19.0923 48.5664 14.7061C48.7621 11.0275 53.1246 8 58.3896 8C64.6233 8 68.7665 11.8849 68.2206 15.0882H62.5044C62.5044 14.0948 60.6489 12.9868 58.5899 12.8553C56.2643 12.7056 54.3347 13.537 54.3347 14.9414C54.3347 15.9608 55.3697 16.5721 57.3183 16.9053C57.3782 16.916 62.8878 17.8589 62.8878 17.8589C66.3872 18.458 69 20.7902 69 24.8034Z" fill="white"/>
<path d="M80.0389 13.8453V26.1841C80.0389 27.1625 80.8551 27.9836 81.7757 27.9836H84V33H80.1449C77.0047 33 74.4019 30.4265 74.4019 27.2003V13.8453H71V9.40309H74.4019V1H80.0389V9.40309H84V13.8453H80.0389Z" fill="white"/>
<path d="M136.998 10.669C136.998 9.33611 136.781 7.95207 136.275 6.59905C135.773 5.24759 134.968 3.92871 133.839 2.80844C132.832 1.80919 131.646 1.10631 130.422 0.657888C129.195 0.207917 127.92 0.00155162 126.654 0C125.395 0 124.138 0.206366 122.932 0.625304C121.728 1.04735 120.568 1.68817 119.552 2.59276L119.471 2.66569L116.963 5.2057L121.834 10.1383L124.152 7.78915C124.406 7.57192 124.754 7.36711 125.179 7.2197C125.624 7.06299 126.145 6.97455 126.656 6.9761C127.169 6.9761 127.668 7.06454 128.075 7.21505C128.485 7.36555 128.796 7.56882 129.017 7.78915C129.391 8.16154 129.65 8.58047 129.834 9.06924C130.016 9.55489 130.111 10.1104 130.111 10.669C130.112 11.2834 129.993 11.8978 129.814 12.3618C129.639 12.8304 129.401 13.1298 129.322 13.1934L129.248 13.2602L115.317 27.1363L102.254 13.9087C101.747 13.2974 101.399 12.7202 101.189 12.2159C100.97 11.6884 100.889 11.2446 100.888 10.8474C100.889 10.4735 100.956 10.1274 101.124 9.73333C101.294 9.34077 101.576 8.89545 102.046 8.40359C102.601 7.82483 103.109 7.46486 103.535 7.25694C103.966 7.05057 104.306 6.9792 104.66 6.97765C104.992 6.9792 105.357 7.04592 105.825 7.24918C106.275 7.44779 106.817 7.7907 107.42 8.32446L116.955 17.9802L121.826 13.0476L112.044 3.15135C110.971 2.18779 109.821 1.40422 108.58 0.854945C107.341 0.30567 106.005 -2.604e-07 104.66 0.00155136C103.23 -2.604e-07 101.816 0.349115 100.544 0.974419C99.2679 1.59817 98.1249 2.48104 97.1059 3.54391C96.1329 4.55867 95.3484 5.69911 94.8121 6.94196C94.2758 8.18171 93.9985 9.52076 94 10.8474C94 12.2609 94.308 13.6496 94.8458 14.9344C95.3852 16.2222 96.1498 17.417 97.0829 18.5202L97.1687 18.6226L115.317 37L134.05 18.2611L134.044 18.2548C135.065 17.2789 135.763 16.1152 136.242 14.8677C136.738 13.5581 136.998 12.1399 137 10.6674" fill="white"/>
</svg>
