<svg width="73" height="43" viewBox="0 0 73 43" fill="none" xmlns="http://www.w3.org/2000/svg">
<path d="M13 23V25.4834H7.98141V38H5.01859V25.4834H0V23H13Z" fill="#FE8204"/>
<path d="M22 29.237V37.7261H18.9437V36.0052C18.6896 36.6873 17.7466 37.9392 15.7119 37.9972C12.6134 38.0858 11 36.051 11 34.211C11 31.876 13.147 30.4232 15.7423 30.4232H17.6512C18.4211 30.4232 18.975 30.0207 18.9395 29.5166C18.8804 28.6581 18.0961 28.2112 16.8027 28.2112C15.955 28.2112 15.1487 28.6795 14.8769 29.2538H11.8164C12.3821 26.8769 14.6456 26 16.8027 26C18.9598 26 21.9992 27.0044 21.9992 29.2386M18.9437 32.2121C18.5123 32.361 18.0336 32.4451 17.5439 32.4451H16.2438C15.4426 32.4451 14.1973 32.6604 14.0554 33.8466C13.9397 34.8136 14.8212 35.6874 16.2438 35.6874C17.5938 35.6874 18.9429 34.8129 18.9429 33.836V32.2113L18.9437 32.2121Z" fill="#FE8204"/>
<path d="M34.0188 29.0198V34.8036C34.0188 35.2622 34.4269 35.6478 34.8871 35.6478H35.9992V37.9993H34.0718C32.5018 37.9993 31.2004 36.793 31.2004 35.2806V29.0205H27.5192V34.8043C27.5192 35.2629 27.9273 35.6486 28.3875 35.6486H29.4996V38H27.5722C26.0022 38 24.7008 36.7937 24.7008 35.2814V29.0212H23V26.9389H24.7008V23H27.5192V26.9389H31.2004V23H34.0196V26.9389H36V29.0212H34.0196L34.0188 29.0198Z" fill="#FE8204"/>
<path d="M49 32.0004C49 35.8031 46.4161 37.9748 43.5 38C40.5839 37.9748 38 35.8146 38 32.0004C38 28.1862 40.6438 26 43.5 26C46.3562 26 49 28.1976 49 32.0004ZM46.3103 32.0004C46.3103 29.7584 44.9573 28.4603 43.5 28.4382C42.0427 28.4611 40.6904 29.747 40.6904 32.0004C40.6904 34.4042 42.076 35.545 43.5 35.5641C44.9247 35.545 46.3103 34.4042 46.3103 32.0004Z" fill="#FE8204"/>
<path d="M61 32.0004C61 35.8031 58.4161 37.9748 55.5 38C52.5839 37.9748 50 35.8146 50 32.0004C50 28.1862 52.6438 26 55.5 26C58.3562 26 61 28.1976 61 32.0004ZM58.3103 32.0004C58.3103 29.7584 56.9573 28.4603 55.5 28.4382C54.0427 28.4611 52.6905 29.747 52.6905 32.0004C52.6905 34.4042 54.076 35.545 55.5 35.5641C56.9247 35.545 58.3103 34.4042 58.3103 32.0004Z" fill="#FE8204"/>
<path d="M73 34.4017C73 36.9203 70.2554 38.0749 67.5496 37.9962C64.1215 37.8961 62 35.9629 62 34.0349H64.9917C64.9917 34.9473 66.2926 35.5281 67.5496 35.567C68.8331 35.6075 69.9661 35.0986 69.9661 34.4422C69.9661 33.8775 69.5388 33.5917 68.5636 33.4328C68.5256 33.4267 65.7545 32.9835 65.7545 32.9835C63.9446 32.6878 62.1752 31.5461 62.2967 29.353C62.3992 27.5138 64.6843 26 67.4422 26C70.7074 26 72.8777 27.9424 72.5917 29.5441H69.5975C69.5975 29.0474 68.6256 28.4934 67.5471 28.4277C66.3289 28.3528 65.3182 28.7685 65.3182 29.4707C65.3182 29.9804 65.8603 30.2861 66.881 30.4526C66.9124 30.458 69.7983 30.9295 69.7983 30.9295C71.6314 31.2282 73 32.3951 73 34.4017Z" fill="#FE8204"/>
<path d="M10 5V16.5308C10 19.4263 7.7748 21 5 21C2.2252 21 0 19.1454 0 16.5308V15.5603H2.99322V16.5308C2.99322 17.6322 3.86532 18.5614 5 18.5614C6.13468 18.5614 6.96184 17.6866 7.00442 16.6318C7.00599 16.5982 7.00442 5 7.00442 5H10Z" fill="#FE8204"/>
<path d="M23 9.00078V20.7199H19.9514V19.2653C19.5386 19.9516 18.7291 20.941 17.1218 20.9958C13.8491 21.1106 12 18.8738 12 16.8088V9H15.0495V16.8088C15.0495 17.8069 15.9989 18.508 17.5758 18.508C19.1528 18.508 19.9514 17.4708 19.9514 16.2476V9H23V9.00078Z" fill="#FE8204"/>
<path d="M35 16.4017C35 18.9203 32.2554 20.0749 29.5496 19.9962C26.1215 19.8961 24 17.9629 24 16.0349H26.9917C26.9917 16.9473 28.2926 17.5281 29.5496 17.567C30.8331 17.6075 31.9661 17.0986 31.9661 16.4422C31.9661 15.8775 31.5388 15.5917 30.5636 15.4328C30.5256 15.4267 27.7545 14.9835 27.7545 14.9835C25.9446 14.6878 24.1752 13.5461 24.2967 11.353C24.3992 9.51376 26.6843 8 29.4422 8C32.7074 8 34.8777 9.94244 34.5917 11.5441H31.5975C31.5975 11.0474 30.6256 10.4934 29.5471 10.4277C28.3289 10.3528 27.3182 10.7685 27.3182 11.4707C27.3182 11.9804 27.8603 12.2861 28.881 12.4526C28.9124 12.458 31.7983 12.9295 31.7983 12.9295C33.6314 13.229 35 14.3951 35 16.4017Z" fill="#FE8204"/>
<path d="M39.1718 11.0212V16.805C39.1718 17.2637 39.5485 17.6486 39.9734 17.6486H41V20H39.2207C37.7714 20 36.5701 18.7937 36.5701 17.2814V11.0212H35V8.93895H36.5701V5H39.1718V8.93895H41V11.0212H39.1718Z" fill="#FE8204"/>
<path d="M68.9992 10.1903C68.9992 9.54189 68.8879 8.86857 68.6292 8.21035C68.3721 7.55288 67.9605 6.91126 67.3827 6.36627C66.8677 5.88015 66.2609 5.5382 65.6345 5.32005C65.0066 5.10115 64.3543 5.00075 63.7068 5C63.0624 5 62.4195 5.10039 61.8026 5.3042C61.1864 5.50952 60.5929 5.82127 60.0732 6.26134L60.0316 6.29682L58.7483 7.5325L61.2405 9.93215L62.4266 8.78931C62.5567 8.68364 62.7347 8.584 62.9518 8.51229C63.18 8.43605 63.4465 8.39302 63.7076 8.39378C63.9702 8.39378 64.2257 8.4368 64.4335 8.51002C64.6436 8.58324 64.8027 8.68213 64.9156 8.78931C65.1069 8.97048 65.2394 9.17428 65.3335 9.41206C65.4268 9.64833 65.4754 9.91856 65.4754 10.1903C65.4761 10.4892 65.415 10.7881 65.3233 11.0138C65.2339 11.2418 65.1124 11.3875 65.0716 11.4184L65.034 11.4509L57.9063 18.2015L51.2231 11.7664C50.9637 11.469 50.7857 11.1882 50.6783 10.9429C50.5662 10.6862 50.5246 10.4704 50.5239 10.2771C50.5246 10.0952 50.5591 9.92686 50.6446 9.73513C50.7316 9.54416 50.8759 9.32752 51.1165 9.08823C51.4003 8.80668 51.6606 8.63155 51.8785 8.5304C52.0988 8.43001 52.2729 8.39529 52.4539 8.39453C52.6241 8.39529 52.8106 8.42774 53.0497 8.52663C53.2802 8.62325 53.5577 8.79007 53.8658 9.04974L58.7444 13.7471L61.2365 11.3475L56.2318 6.53309C55.683 6.06433 55.0943 5.68313 54.4593 5.41592C53.8259 5.1487 53.1423 5 52.4539 5.00075C51.7225 5 50.9989 5.16984 50.3483 5.47404C49.6952 5.77749 49.1104 6.20699 48.5891 6.72406C48.0913 7.21773 47.6899 7.77254 47.4155 8.37717C47.1411 8.98029 46.9992 9.63172 47 10.2771C47 10.9648 47.1576 11.6404 47.4327 12.2654C47.7087 12.8919 48.0999 13.4731 48.5773 14.0098L48.6212 14.0596L57.9063 23L67.4909 13.8838L67.4878 13.8807C68.0099 13.4059 68.3674 12.8398 68.6119 12.2329C68.8659 11.5958 68.9992 10.9059 69 10.1895" fill="#FE8204"/>
</svg>
