<svg width="97" height="57" viewBox="0 0 97 57" fill="none" xmlns="http://www.w3.org/2000/svg">
<path d="M17 30V33.3112H10.4372V50H6.56278V33.3112H0V30H17Z" fill="#FE8204"/>
<path d="M29 39.3161V50.6347H25.1102V48.3402C24.7868 49.2497 23.5865 50.9189 20.9969 50.9963C17.0534 51.1144 15 48.4014 15 45.948C15 42.8347 17.7325 40.8977 21.0356 40.8977H23.4651C24.4451 40.8977 25.15 40.3609 25.1048 39.6888C25.0296 38.5441 24.0314 37.9483 22.3852 37.9483C21.3064 37.9483 20.2802 38.5726 19.9342 39.3385H16.0391C16.759 36.1691 19.6398 35 22.3852 35C25.1306 35 28.9989 36.3392 28.9989 39.3181M25.1102 43.2828C24.5611 43.4814 23.9519 43.5934 23.3287 43.5934H21.6739C20.6542 43.5934 19.0692 43.8806 18.8887 45.4622C18.7415 46.7515 19.8633 47.9166 21.6739 47.9166C23.392 47.9166 25.1091 46.7505 25.1091 45.4479V43.2818L25.1102 43.2828Z" fill="#FE8204"/>
<path d="M45.4092 38.0263V45.7381C45.4092 46.3496 45.9429 46.8638 46.5447 46.8638H47.999V49.999H45.4785C43.4254 49.999 41.7237 48.3906 41.7237 46.3742V38.0273H36.9097V45.7391C36.9097 46.3506 37.4434 46.8648 38.0452 46.8648H39.4995V50H36.979C34.9259 50 33.2242 48.3916 33.2242 46.3752V38.0283H31V35.2519H33.2242V30H36.9097V35.2519H41.7237V30H45.4102V35.2519H48V38.0283H45.4102L45.4092 38.0263Z" fill="#FE8204"/>
<path d="M65 43.0005C65 48.0708 61.4765 50.9664 57.5 51C53.5235 50.9664 50 48.0861 50 43.0005C50 37.9149 53.6052 35 57.5 35C61.3948 35 65 37.9302 65 43.0005ZM61.3322 43.0005C61.3322 40.0113 59.4872 38.2804 57.5 38.2509C55.5128 38.2815 53.6688 39.996 53.6688 43.0005C53.6688 46.2056 55.5582 47.7267 57.5 47.7521C59.4428 47.7267 61.3322 46.2056 61.3322 43.0005Z" fill="#FE8204"/>
<path d="M81 43.0005C81 48.0708 77.4765 50.9664 73.5 51C69.5235 50.9664 66 48.0861 66 43.0005C66 37.9149 69.6052 35 73.5 35C77.3948 35 81 37.9302 81 43.0005ZM77.3322 43.0005C77.3322 40.0113 75.4872 38.2804 73.5 38.2509C71.5128 38.2815 69.6688 39.996 69.6688 43.0005C69.6688 46.2056 71.5582 47.7267 73.5 47.7521C75.4428 47.7267 77.3322 46.2056 77.3322 43.0005Z" fill="#FE8204"/>
<path d="M97 46.2023C97 49.5604 93.5068 51.0999 90.0631 50.995C85.7001 50.8615 83 48.2838 83 45.7132H86.8077C86.8077 46.9298 88.4633 47.7041 90.0631 47.756C91.6966 47.81 93.1387 47.1315 93.1387 46.2563C93.1387 45.5034 92.5949 45.1223 91.3537 44.9104C91.3053 44.9022 87.7785 44.3113 87.7785 44.3113C85.475 43.917 83.223 42.3948 83.3776 39.4707C83.508 37.0183 86.4164 35 89.9264 35C94.0822 35 96.8443 37.5899 96.4804 39.7254H92.6696C92.6696 39.0632 91.4326 38.3245 90.06 38.2369C88.5095 38.1371 87.2231 38.6913 87.2231 39.6276C87.2231 40.3072 87.9131 40.7148 89.2122 40.9369C89.2521 40.944 92.9252 41.5726 92.9252 41.5726C95.2582 41.971 97 43.5268 97 46.2023Z" fill="#FE8204"/>
<path d="M13 6V21.1342C13 24.9346 10.1072 27 6.5 27C2.89276 27 0 24.5659 0 21.1342V19.8604H3.89118V21.1342C3.89118 22.5798 5.02492 23.7994 6.5 23.7994C7.97508 23.7994 9.05039 22.6511 9.10574 21.2668C9.10779 21.2226 9.10574 6 9.10574 6H13Z" fill="#FE8204"/>
<path d="M30 12.001V27.6265H26.1199V25.6871C25.5946 26.6021 24.5643 27.9214 22.5186 27.9943C18.3533 28.1475 16 25.165 16 22.4117V12H19.8811V22.4117C19.8811 23.7425 21.0894 24.6773 23.0965 24.6773C25.1035 24.6773 26.1199 23.2944 26.1199 21.6635V12H30V12.001Z" fill="#FE8204"/>
<path d="M46 22.2023C46 25.5604 42.5068 27.0999 39.0631 26.995C34.7001 26.8615 32 24.2838 32 21.7132H35.8077C35.8077 22.9298 37.4633 23.7041 39.0631 23.756C40.6966 23.81 42.1387 23.1315 42.1387 22.2563C42.1387 21.5034 41.5949 21.1223 40.3537 20.9104C40.3053 20.9022 36.7785 20.3113 36.7785 20.3113C34.475 19.917 32.223 18.3948 32.3776 15.4707C32.508 13.0183 35.4164 11 38.9264 11C43.0822 11 45.8443 13.5899 45.4804 15.7254H41.6696C41.6696 15.0632 40.4326 14.3245 39.06 14.2369C37.5095 14.137 36.2231 14.6913 36.2231 15.6276C36.2231 16.3072 36.9131 16.7147 38.2122 16.9369C38.2521 16.944 41.9252 17.5726 41.9252 17.5726C44.2582 17.972 46 19.5268 46 22.2023Z" fill="#FE8204"/>
<path d="M52.5624 15.0283V22.7401C52.5624 23.3516 53.0647 23.8648 53.6312 23.8648H55V27H52.6276C50.6952 27 49.0935 25.3916 49.0935 23.3752V15.0283H47V12.2519H49.0935V7H52.5624V12.2519H55V15.0283H52.5624Z" fill="#FE8204"/>
<path d="M90.999 12.9204C90.999 12.0559 90.8522 11.1581 90.5112 10.2805C90.1723 9.40384 89.6297 8.54835 88.8681 7.82169C88.1892 7.17353 87.3893 6.7176 86.5637 6.42674C85.7359 6.13487 84.8761 6.00101 84.0226 6C83.1731 6 82.3257 6.13386 81.5125 6.4056C80.7002 6.67936 79.9179 7.09503 79.2328 7.68179L79.178 7.7291L77.4864 9.37667L80.7715 12.5762L82.335 11.0524C82.5066 10.9115 82.7412 10.7787 83.0274 10.683C83.3281 10.5814 83.6795 10.524 84.0236 10.525C84.3698 10.525 84.7067 10.5824 84.9805 10.68C85.2575 10.7777 85.4672 10.9095 85.616 11.0524C85.8682 11.294 86.0428 11.5657 86.1668 11.8827C86.2898 12.1978 86.3539 12.5581 86.3539 12.9204C86.3549 13.319 86.2743 13.7175 86.1534 14.0185C86.0356 14.3224 85.8754 14.5166 85.8217 14.5579L85.7721 14.6012L76.3765 23.6019L67.5669 15.0219C67.2248 14.6253 66.9902 14.2509 66.8487 13.9238C66.7009 13.5816 66.6461 13.2938 66.6451 13.0361C66.6461 12.7936 66.6916 12.5692 66.8042 12.3135C66.9189 12.0589 67.1091 11.77 67.4263 11.451C67.8004 11.0756 68.1435 10.8421 68.4308 10.7072C68.7212 10.5733 68.9506 10.527 69.1893 10.526C69.4135 10.527 69.6595 10.5703 69.9747 10.7022C70.2785 10.831 70.6443 11.0534 71.0504 11.3996L77.4812 17.6628L80.7664 14.4633L74.1692 8.04412C73.4458 7.41911 72.6697 6.91084 71.8327 6.55456C70.9977 6.19827 70.0966 6 69.1893 6.00101C68.2251 6 67.2713 6.22645 66.4136 6.63206C65.5528 7.03665 64.7819 7.60933 64.0947 8.29875C63.4385 8.95697 62.9094 9.69672 62.5477 10.5029C62.186 11.3071 61.999 12.1756 62 13.0361C62 13.953 62.2077 14.8538 62.5704 15.6872C62.9342 16.5225 63.4498 17.2975 64.0792 18.0131L64.1371 18.0795L76.3765 30L89.0107 17.845L89.0066 17.841C89.6948 17.2079 90.1661 16.4531 90.4885 15.6439C90.8233 14.7944 90.999 13.8745 91 12.9194" fill="#FE8204"/>
</svg>
