<svg width="33" height="36" viewBox="0 0 33 36" fill="none" xmlns="http://www.w3.org/2000/svg">
<g clip-path="url(#clip0_304_9991)">
<path d="M9.55556 12.3333V9.38095C9.55556 7.4234 10.2872 5.54603 11.5895 4.16183C12.8919 2.77763 14.6582 2 16.5 2C18.3418 2 20.1081 2.77763 21.4105 4.16183C22.7128 5.54603 23.4444 7.4234 23.4444 9.38095V12.3333H27.6111C27.9795 12.3333 28.3327 12.4889 28.5932 12.7657C28.8537 13.0425 29 13.418 29 13.8095V31.5238C29 31.9153 28.8537 32.2908 28.5932 32.5676C28.3327 32.8445 27.9795 33 27.6111 33H5.38889C5.02053 33 4.66726 32.8445 4.4068 32.5676C4.14633 32.2908 4 31.9153 4 31.5238V13.8095C4 13.418 4.14633 13.0425 4.4068 12.7657C4.66726 12.4889 5.02053 12.3333 5.38889 12.3333H9.55556ZM9.55556 15.2857H6.77778V30.0476H26.2222V15.2857H23.4444V18.2381H20.6667V15.2857H12.3333V18.2381H9.55556V15.2857ZM12.3333 12.3333H20.6667V9.38095C20.6667 8.20642 20.2277 7.08 19.4463 6.24948C18.6649 5.41896 17.6051 4.95238 16.5 4.95238C15.3949 4.95238 14.3351 5.41896 13.5537 6.24948C12.7723 7.08 12.3333 8.20642 12.3333 9.38095V12.3333Z" fill="#FE8204"/>
</g>
<defs>
<clipPath id="clip0_304_9991">
<rect width="33" height="36" fill="white"/>
</clipPath>
</defs>
</svg>
