<svg width="33" height="36" viewBox="0 0 33 36" fill="none" xmlns="http://www.w3.org/2000/svg">
<g clip-path="url(#clip0_304_9987)">
<path d="M17 33C9.2678 33 3 26.2845 3 18C3 9.7155 9.2678 3 17 3C24.7322 3 31 9.7155 31 18C31 26.2845 24.7322 33 17 33ZM10.0182 27.384C12 29.0815 14.4628 30.0043 17 30C19.758 30 22.2822 28.932 24.2338 27.162C23.322 26.1596 22.2319 25.3633 21.0278 24.8202C19.8238 24.2771 18.5304 23.9982 17.224 24C15.8696 23.9983 14.5297 24.2983 13.2893 24.8808C12.0488 25.4634 10.9349 26.3158 10.0182 27.384ZM8.0624 25.23C9.23904 23.8921 10.6589 22.8266 12.2346 22.0991C13.8103 21.3716 15.5083 20.9975 17.224 21C18.8783 20.9977 20.5168 21.3455 22.0452 22.0236C23.5737 22.7016 24.9622 23.6965 26.1308 24.951C27.3293 23.1437 28.0371 21.016 28.1756 18.8039C28.3141 16.5918 27.8779 14.3818 26.9155 12.4192C25.953 10.4565 24.5019 8.81793 22.7232 7.68517C20.9444 6.5524 18.9075 5.96976 16.8384 6.00188C14.7694 6.034 12.7491 6.67963 11.0017 7.86714C9.25433 9.05464 7.84814 10.7376 6.93917 12.7293C6.03019 14.721 5.65397 16.9436 5.85224 19.1504C6.05051 21.3573 6.81552 23.4621 8.0624 25.2315V25.23ZM17 19.5C15.5148 19.5 14.0904 18.8679 13.0402 17.7426C11.99 16.6174 11.4 15.0913 11.4 13.5C11.4 11.9087 11.99 10.3826 13.0402 9.25736C14.0904 8.13214 15.5148 7.5 17 7.5C18.4852 7.5 19.9096 8.13214 20.9598 9.25736C22.01 10.3826 22.6 11.9087 22.6 13.5C22.6 15.0913 22.01 16.6174 20.9598 17.7426C19.9096 18.8679 18.4852 19.5 17 19.5ZM17 16.5C17.7426 16.5 18.4548 16.1839 18.9799 15.6213C19.505 15.0587 19.8 14.2956 19.8 13.5C19.8 12.7044 19.505 11.9413 18.9799 11.3787C18.4548 10.8161 17.7426 10.5 17 10.5C16.2574 10.5 15.5452 10.8161 15.0201 11.3787C14.495 11.9413 14.2 12.7044 14.2 13.5C14.2 14.2956 14.495 15.0587 15.0201 15.6213C15.5452 16.1839 16.2574 16.5 17 16.5Z" fill="#FE8204"/>
</g>
<defs>
<clipPath id="clip0_304_9987">
<rect width="33" height="36" fill="white"/>
</clipPath>
</defs>
</svg>
